<?xml version="1.0" encoding="UTF-8" standalone="no"?>
<svg
   version="1.1"
   x="0px"
   y="0px"
   viewBox="0 0 100 100"
   xml:space="preserve"
   id="svg2"
   sodipodi:docname="gift-card.svg"
   width="100"
   height="100"
   inkscape:version="1.3.2 (091e20e, 2023-11-25)"
   xmlns:inkscape="http://www.inkscape.org/namespaces/inkscape"
   xmlns:sodipodi="http://sodipodi.sourceforge.net/DTD/sodipodi-0.dtd"
   xmlns="http://www.w3.org/2000/svg"
   xmlns:svg="http://www.w3.org/2000/svg"><defs
     id="defs2" /><sodipodi:namedview
     id="namedview2"
     pagecolor="#ffffff"
     bordercolor="#000000"
     borderopacity="0.25"
     inkscape:showpageshadow="2"
     inkscape:pageopacity="0.0"
     inkscape:pagecheckerboard="0"
     inkscape:deskcolor="#d1d1d1"
     inkscape:zoom="3.5922244"
     inkscape:cx="60.965011"
     inkscape:cy="66.532592"
     inkscape:window-width="1392"
     inkscape:window-height="847"
     inkscape:window-x="0"
     inkscape:window-y="25"
     inkscape:window-maximized="1"
     inkscape:current-layer="svg2" /><g
     id="g1"
     transform="translate(-0.001,-0.83513715)"><path
       d="M 10.6,50.37 H 0 L 0.001,16.203008 c 1.3554e-4,-4.631 3.755,-8.3870004 8.387,-8.3870004 h 19.18 L 27.567,39.063 C 27.432,38.905 27.294,38.754 27.153,38.612 22.034,33.447 14.648,32.468 10.655,36.425 7.287,39.763 7.41,45.544 10.6,50.37 Z m 5.899,29.936 -6.7,-5.231 8.095,-13.709 H 0 v 22.989751 c 0,4.631 3.755,8.385 8.387,8.385 h 19.18 V 65.758 Z m 23.04,-41.694 c 5.119,-5.165 12.505,-6.144 16.498,-2.187 3.365,3.337 3.244,9.118 0.055,13.944 H 100 l 0.001,-34.165992 c 1.4e-4,-4.631 -3.755,-8.3870004 -8.387,-8.3870004 H 39.126 L 39.125,39.063 c 0.135,-0.158 0.271,-0.308 0.414,-0.451 z M 56.893,73.604 49.662,80.306 39.126,65.248 v 27.491751 h 52.488 c 4.632,0 8.387,-3.754 8.387,-8.385 V 61.365 H 48.755 Z M 42.072,43.116 c -2.619,2.641 -3.129,10.553 -3.129,10.553 0,0 7.907,-0.58 10.526,-3.223 2.619,-2.641 3.087,-6.424 1.044,-8.449 -2.041,-2.023 -5.822,-1.523 -8.441,1.119 z M 16.177,41.997 c -2.043,2.025 -1.576,5.809 1.043,8.449 2.62,2.643 10.526,3.223 10.526,3.223 0,0 -0.51,-7.912 -3.129,-10.553 -2.619,-2.642 -6.398,-3.142 -8.44,-1.119 z"
       id="path1"
       sodipodi:nodetypes="ccsscccccccccsscccccccsscccccccssccccccscccccc" /></g></svg>
