<?xml version="1.0" encoding="UTF-8" standalone="no"?>
<svg
   version="1.1"
   viewBox="-5 -10 110 110"
   id="svg2"
   sodipodi:docname="ticket.svg"
   width="110"
   height="110"
   inkscape:version="1.3.2 (091e20e, 2023-11-25)"
   xmlns:inkscape="http://www.inkscape.org/namespaces/inkscape"
   xmlns:sodipodi="http://sodipodi.sourceforge.net/DTD/sodipodi-0.dtd"
   xmlns="http://www.w3.org/2000/svg"
   xmlns:svg="http://www.w3.org/2000/svg">
  <defs
     id="defs2" />
  <sodipodi:namedview
     id="namedview2"
     pagecolor="#ffffff"
     bordercolor="#000000"
     borderopacity="0.25"
     inkscape:showpageshadow="2"
     inkscape:pageopacity="0.0"
     inkscape:pagecheckerboard="0"
     inkscape:deskcolor="#d1d1d1"
     inkscape:zoom="3.2883304"
     inkscape:cx="18.854553"
     inkscape:cy="54.739025"
     inkscape:window-width="1392"
     inkscape:window-height="847"
     inkscape:window-x="0"
     inkscape:window-y="25"
     inkscape:window-maximized="1"
     inkscape:current-layer="svg2" />
  <path
     d="m 102.7474,36.137578 c 0,0 -0.38512,-0.0147 0,0 3.0997,0.118322 2.7799,-4.66847 2.7799,-6.481523 V 17.162932 C 105.51362,7.8859881 99.883171,0.3686261 92.924136,0.35147314 l -12.128539,0.006082 c -2.287764,0 -4.146383,2.47298876 -4.146383,5.53089346 v 4.6294274 c 0,2.028415 -1.105082,3.874073 -2.621167,4.062912 -1.739846,0.213195 -3.191998,-1.608012 -3.191998,-3.867992 V 5.8884481 c 0,-3.0516672 -1.853943,-5.53089345 -4.146382,-5.53089345 H 7.0745343 C 0.11982536,0.36971765 -5.5157666,7.8862999 -5.5286258,17.169013 v 12.627228 c 0,2.138039 1.4167802,6.341181 3.0287362,6.341181 4.6897413,-0.01216 8.3691685,2.594731 8.382846,8.862578 0,6.255684 -3.2706533,8.338975 -7.9603945,8.338975 h -0.0137 c -1.6073968,0 -2.8363167,1.736935 -2.9088622,3.880156 l -0.528648,15.617937 c 0.0137,9.276944 5.64412579,16.794306 12.6031601,16.811459 H 66.698996 c 2.287764,0 4.146382,-2.472989 4.146382,-5.530894 v -2.448662 c 0,-2.028416 1.091382,-3.880155 2.60749,-4.087238 1.739846,-0.237553 3.205675,1.577604 3.205675,3.86191 v 2.67399 c 0,3.051668 1.853942,5.530894 4.146383,5.530894 H 92.933465 C 99.883615,89.630251 105.51441,82.1137 105.52727,72.837068 V 60.343945 c 0,-2.125875 -0.77282,-7.010895 -2.37109,-7.004814 -4.694303,0.0061 -9.026812,-2.083291 -9.026812,-8.338975 0,-6.255684 3.923735,-8.86866 8.618032,-8.862578 z m -26.094211,28.38436 c 0,2.150201 -1.296906,3.880155 -2.899744,3.880155 -1.611957,0 -2.908863,-1.729954 -2.908863,-3.880155 V 54.54453 c 0,-2.138039 1.296906,-3.886237 2.908863,-3.886237 1.602837,0 2.899744,1.748198 2.899744,3.886237 z m 0,-26.898958 c 0,2.150202 -1.296906,3.880156 -2.899744,3.880156 -1.611957,0 -2.908863,-1.729954 -2.908863,-3.880156 v -9.977408 c 0,-2.138038 1.296906,-3.886236 2.908863,-3.886236 1.602837,0 2.899744,1.748198 2.899744,3.886236 z"
     id="path1"
     inkscape:label="path1"
     style="stroke-width:1.35015"
     sodipodi:nodetypes="csscccsscsssccsccsssccssscsssccscscssssssssssssss" />
</svg>
