<?xml version="1.0" encoding="UTF-8" standalone="no"?>
<!-- Created with Inkscape (http://www.inkscape.org/) -->

<svg
   version="1.1"
   id="svg2"
   width="1150.212"
   height="240.85699"
   viewBox="0 0 1150.212 240.85699"
   sodipodi:docname="jmu-logo.svg"
   inkscape:version="1.3.2 (091e20e, 2023-11-25)"
   xmlns:inkscape="http://www.inkscape.org/namespaces/inkscape"
   xmlns:sodipodi="http://sodipodi.sourceforge.net/DTD/sodipodi-0.dtd"
   xmlns="http://www.w3.org/2000/svg"
   xmlns:svg="http://www.w3.org/2000/svg">
  <defs
     id="defs6" />
  <sodipodi:namedview
     id="namedview4"
     pagecolor="#ffffff"
     bordercolor="#000000"
     borderopacity="0.25"
     inkscape:showpageshadow="2"
     inkscape:pageopacity="0.0"
     inkscape:pagecheckerboard="0"
     inkscape:deskcolor="#d1d1d1"
     inkscape:zoom="0.27280437"
     inkscape:cx="527.85078"
     inkscape:cy="219.93783"
     inkscape:window-width="1392"
     inkscape:window-height="847"
     inkscape:window-x="0"
     inkscape:window-y="25"
     inkscape:window-maximized="1"
     inkscape:current-layer="g8" />
  <g
     id="g8"
     inkscape:groupmode="layer"
     inkscape:label="ink_ext_XXXXXX"
     transform="matrix(1.3333333,0,0,-1.3333333,-4.2297012e-4,171.62093)">
    <g
       id="g10"
       transform="matrix(0.1,0,0,0.1,0,-25.499675)"
       style="fill:#ffffff">
      <path
         d="M 742.156,1222.57 628.426,763.793 H 155.809 L 63.2891,390.52 C 43.8438,312.148 60.3789,231.48 108.621,169.18 156.863,106.891 230.496,71.1602 310.633,71.1602 H 3250.15 c 155.1,0 294.95,110.1098 332.56,261.8048 L 3803.2,1222.57 Z M 3873.88,1277.88 3636.39,319.66 C 3592.75,143.621 3430.31,15.8711 3250.15,15.8711 H 310.633 C 213.25,15.8711 123.688,59.3984 64.8984,135.32 6.22656,211.078 -13.918,308.953 9.61719,403.836 L 112.547,819.094 H 585.152 L 698.883,1277.88 H 3873.88"
         style="fill:#ffffff;fill-opacity:1;fill-rule:nonzero;stroke:none"
         id="path12" />
      <path
         d="M 837.75,1099.16 666.668,409.074 H 520.23 l 57.344,231.297 H 251.402 l -68.3,-275.59 c -10.36,-41.769 -1.563,-84.761 24.152,-117.961 25.703,-33.199 64.961,-52.242 107.664,-52.242 h 482.891 c 98.457,0 187.246,69.891 211.101,166.195 l 183.06,738.387 H 837.75"
         style="fill:#ffffff;fill-opacity:1;fill-rule:nonzero;stroke:none"
         id="path14" />
      <path
         d="m 2094.77,1098.66 -251.4,-451.719 -44.83,451.719 H 1339.09 L 1114.86,194.09 h 354.22 l 126.73,511.211 42.12,-511.211 h 258.42 L 2193.42,707.883 2066.05,194.09 h 354.23 l 224.24,904.57 h -549.75"
         style="fill:#ffffff;fill-opacity:1;fill-rule:nonzero;stroke:none"
         id="path16" />
      <path
         d="M 3292.2,1099.16 3121.12,409.074 h -146.43 l 170.94,689.586 H 2791.41 L 2609.53,364.781 c -10.36,-41.769 -1.56,-84.761 24.15,-117.961 25.7,-33.199 64.96,-52.242 107.67,-52.242 h 510.9 c 98.47,0 187.26,69.891 211.12,166.195 l 183.05,738.387 H 3292.2"
         style="fill:#ffffff;fill-opacity:1;fill-rule:nonzero;stroke:none"
         id="path18" />
      <path
         d="m 3714.92,82.3906 v -11.289 h 13.03 c 4.2,0 6.37,1.8789 6.37,5.6484 0,3.6211 -2.17,5.6406 -6.37,5.6406 z m -14.19,-47.3515 v 61.4023 h 27.22 c 11.73,0 20.56,-6.9531 20.56,-19.6914 0,-9.5586 -5.21,-15.3516 -11.3,-17.668 l 12.46,-24.0429 h -15.06 l -11.29,21.8711 h -8.4 V 35.0391 Z m 22.29,-19.1094 c 27.08,0 49.1,22.0117 49.1,49.0898 0,27.0821 -22.02,49.0895 -49.1,49.0895 -27.08,0 -49.09,-22.0074 -49.09,-49.0895 0,-27.0781 22.01,-49.0898 49.09,-49.0898 z m 0,114.1093 c 35.91,0 65.02,-29.109 65.02,-65.0195 C 3788.04,29.1016 3758.93,0 3723.02,0 c -35.9,0 -65.01,29.1016 -65.01,65.0195 0,35.9105 29.11,65.0195 65.01,65.0195"
         style="fill:#ffffff;fill-opacity:1;fill-rule:nonzero;stroke:none"
         id="path20" />
    </g>
    <path
       style="font-size:138.142px;font-family:'FONTSPRING DEMO - Artegra Sans Alt Medium';-inkscape-font-specification:'FONTSPRING DEMO - Artegra Sans Alt Medium, ';fill:#fffcfc;stroke:#ffffff;stroke-width:9"
       d="m 433.62,3.4972465 c 30.82563,0 47.01415,-18.1446275 47.01415,-48.3631895 0,-30.218562 -16.25597,-48.36319 -47.01415,-48.36319 H 399.21941 V 3.4972465 Z m 0,-85.5293235 c 23.27099,0 33.18646,15.446542 33.18646,37.166134 0,21.719591 -9.91547,37.166133 -33.18646,37.166133 h -20.97762 v -74.332267 z m 66.37292,85.5293235 h 12.74845 V -64.899231 h -12.74845 z m -1.82121,-88.4972175 c 0,4.519294 3.64242,8.16171 8.16171,8.16171 4.51929,0 8.22916,-3.642416 8.22916,-8.16171 0,-4.519294 -3.70987,-8.229162 -8.22916,-8.229162 -4.51929,0 -8.16171,3.709868 -8.16171,8.229162 z M 546.19765,3.4972465 V -33.264174 c 0,-12.88336 4.65419,-22.529017 18.95405,-22.529017 14.29986,0 18.8866,9.713109 18.8866,22.529017 V 3.4972465 h 12.74846 V -33.264174 c 0,-20.168192 -9.98292,-32.9841 -30.96054,-32.9841 -7.8919,0 -16.79558,3.642416 -19.62857,11.669221 V -64.899231 H 533.44919 V 3.4972465 Z m 71.2969,0 h 12.74846 V -64.899231 h -12.74846 z m -1.82121,-88.4972175 c 0,4.519294 3.64242,8.16171 8.16171,8.16171 4.5193,0 8.22916,-3.642416 8.22916,-8.16171 0,-4.519294 -3.70986,-8.229162 -8.22916,-8.229162 -4.51929,0 -8.16171,3.709868 -8.16171,8.229162 z M 663.69928,3.4972465 V -33.264174 c 0,-12.88336 4.6542,-22.529017 18.95405,-22.529017 14.29986,0 18.8866,9.713109 18.8866,22.529017 V 3.4972465 h 12.74846 V -33.264174 c 0,-20.168192 -9.98292,-32.9841 -30.96054,-32.9841 -7.8919,0 -16.79558,3.642416 -19.62857,11.669221 V -64.899231 H 650.95082 V 3.4972465 Z M 730.4769,-30.700992 c 0,20.235644 13.08572,35.5472815 33.92843,35.5472815 10.32018,0 20.3031,-5.463624 24.9573,-14.9069245 V 2.1482036 c 0,16.5257764 -5.32872,26.7785024 -23.33844,26.7785024 -8.02681,0 -15.98616,-2.428277 -22.79883,-6.542858 l -7.01502,8.566423 c 7.95935,5.935789 20.03328,8.431518 29.81385,8.431518 25.15965,0 36.08689,-12.208839 36.08689,-37.2335854 V -64.899231 h -12.74845 v 13.557882 c -4.6542,-9.443301 -14.63712,-14.906925 -24.9573,-14.906925 -20.77526,0 -33.92843,15.311637 -33.92843,35.547282 z m 35.952,-25.092199 c 14.56966,0 22.93373,11.264508 22.93373,25.092199 0,13.82769 -8.36407,25.0921986 -22.93373,25.0921986 -14.56966,0 -22.93373,-11.2645086 -22.93373,-25.0921986 0,-13.827691 8.36407,-25.092199 22.93373,-25.092199 z"
       id="text1"
       transform="scale(1.0614085,-0.94214433)"
       aria-label="Dining" />
  </g>
</svg>
